<svg xmlns="http://www.w3.org/2000/svg" version="1.1" xmlns:xlink="http://www.w3.org/1999/xlink" xmlns:svgjs="http://svgjs.dev/svgjs" width="1440" height="560" preserveAspectRatio="none" viewBox="0 0 1440 560"><g mask="url(&quot;#SvgjsMask1961&quot;)" fill="none"><path d="M67.03 39.91L131.99 77.41L131.99 152.41L67.03 189.91L2.08 152.41L2.08 77.41zM67.03 264.91L131.99 302.41L131.99 377.41L67.03 414.91L2.08 377.41L2.08 302.41zM2.08 377.41L67.03 414.91L67.03 489.91L2.08 527.41L-62.87 489.91L-62.87 414.91zM131.99 377.41L196.94 414.91L196.94 489.91L131.99 527.41L67.03 489.91L67.03 414.91zM391.8 -72.59L456.76 -35.09L456.76 39.91L391.8 77.41L326.85 39.91L326.85 -35.09zM456.76 264.91L521.71 302.41L521.71 377.41L456.76 414.91L391.8 377.41L391.8 302.41zM391.8 377.41L456.76 414.91L456.76 489.91L391.8 527.41L326.85 489.91L326.85 414.91zM521.71 -72.59L586.66 -35.09L586.66 39.91L521.71 77.41L456.76 39.91L456.76 -35.09zM586.66 39.91L651.62 77.41L651.62 152.41L586.66 189.91L521.71 152.41L521.71 77.41zM521.71 152.41L586.66 189.91L586.66 264.91L521.71 302.41L456.76 264.91L456.76 189.91zM586.66 264.91L651.62 302.41L651.62 377.41L586.66 414.91L521.71 377.41L521.71 302.41zM521.71 377.41L586.66 414.91L586.66 489.91L521.71 527.41L456.76 489.91L456.76 414.91zM586.66 489.91L651.62 527.41L651.62 602.41L586.66 639.91L521.71 602.41L521.71 527.41zM716.57 264.91L781.53 302.41L781.53 377.41L716.57 414.91L651.62 377.41L651.62 302.41zM716.57 489.91L781.53 527.41L781.53 602.41L716.57 639.91L651.62 602.41L651.62 527.41zM781.52 152.41L846.48 189.91L846.48 264.91L781.52 302.41L716.57 264.91L716.57 189.91zM846.48 489.91L911.43 527.41L911.43 602.41L846.48 639.91L781.52 602.41L781.52 527.41zM911.43 152.41L976.39 189.91L976.39 264.91L911.43 302.41L846.48 264.91L846.48 189.91zM976.39 264.91L1041.34 302.41L1041.34 377.41L976.39 414.91L911.43 377.41L911.43 302.41zM911.43 377.41L976.39 414.91L976.39 489.91L911.43 527.41L846.48 489.91L846.48 414.91zM976.39 489.91L1041.34 527.41L1041.34 602.41L976.39 639.91L911.43 602.41L911.43 527.41zM1106.29 39.91L1171.25 77.41L1171.25 152.41L1106.29 189.91L1041.34 152.41L1041.34 77.41zM1106.29 489.91L1171.25 527.41L1171.25 602.41L1106.29 639.91L1041.34 602.41L1041.34 527.41zM1301.15 -72.59L1366.11 -35.09L1366.11 39.91L1301.15 77.41L1236.2 39.91L1236.2 -35.09zM1366.11 39.91L1431.06 77.41L1431.06 152.41L1366.11 189.91L1301.15 152.41L1301.15 77.41zM1431.06 152.41L1496.02 189.91L1496.02 264.91L1431.06 302.41L1366.11 264.91L1366.11 189.91zM1496.02 264.91L1560.97 302.41L1560.97 377.41L1496.02 414.91L1431.06 377.41L1431.06 302.41zM1496.02 489.91L1560.97 527.41L1560.97 602.41L1496.02 639.91L1431.06 602.41L1431.06 527.41z" stroke="#03305d" stroke-width="2"></path><path d="M59.53 39.91 a7.5 7.5 0 1 0 15 0 a7.5 7.5 0 1 0 -15 0zM124.49 77.41 a7.5 7.5 0 1 0 15 0 a7.5 7.5 0 1 0 -15 0zM124.49 152.41 a7.5 7.5 0 1 0 15 0 a7.5 7.5 0 1 0 -15 0zM59.53 189.91 a7.5 7.5 0 1 0 15 0 a7.5 7.5 0 1 0 -15 0zM-5.42 152.41 a7.5 7.5 0 1 0 15 0 a7.5 7.5 0 1 0 -15 0zM-5.42 77.41 a7.5 7.5 0 1 0 15 0 a7.5 7.5 0 1 0 -15 0zM59.53 264.91 a7.5 7.5 0 1 0 15 0 a7.5 7.5 0 1 0 -15 0zM124.49 302.41 a7.5 7.5 0 1 0 15 0 a7.5 7.5 0 1 0 -15 0zM124.49 377.41 a7.5 7.5 0 1 0 15 0 a7.5 7.5 0 1 0 -15 0zM59.53 414.91 a7.5 7.5 0 1 0 15 0 a7.5 7.5 0 1 0 -15 0zM-5.42 377.41 a7.5 7.5 0 1 0 15 0 a7.5 7.5 0 1 0 -15 0zM-5.42 302.41 a7.5 7.5 0 1 0 15 0 a7.5 7.5 0 1 0 -15 0zM59.53 489.91 a7.5 7.5 0 1 0 15 0 a7.5 7.5 0 1 0 -15 0zM-5.42 527.41 a7.5 7.5 0 1 0 15 0 a7.5 7.5 0 1 0 -15 0zM-70.37 489.91 a7.5 7.5 0 1 0 15 0 a7.5 7.5 0 1 0 -15 0zM-70.37 414.91 a7.5 7.5 0 1 0 15 0 a7.5 7.5 0 1 0 -15 0zM189.44 414.91 a7.5 7.5 0 1 0 15 0 a7.5 7.5 0 1 0 -15 0zM189.44 489.91 a7.5 7.5 0 1 0 15 0 a7.5 7.5 0 1 0 -15 0zM124.49 527.41 a7.5 7.5 0 1 0 15 0 a7.5 7.5 0 1 0 -15 0zM384.3 -72.59 a7.5 7.5 0 1 0 15 0 a7.5 7.5 0 1 0 -15 0zM449.26 -35.09 a7.5 7.5 0 1 0 15 0 a7.5 7.5 0 1 0 -15 0zM449.26 39.91 a7.5 7.5 0 1 0 15 0 a7.5 7.5 0 1 0 -15 0zM384.3 77.41 a7.5 7.5 0 1 0 15 0 a7.5 7.5 0 1 0 -15 0zM319.35 39.91 a7.5 7.5 0 1 0 15 0 a7.5 7.5 0 1 0 -15 0zM319.35 -35.09 a7.5 7.5 0 1 0 15 0 a7.5 7.5 0 1 0 -15 0zM449.26 264.91 a7.5 7.5 0 1 0 15 0 a7.5 7.5 0 1 0 -15 0zM514.21 302.41 a7.5 7.5 0 1 0 15 0 a7.5 7.5 0 1 0 -15 0zM514.21 377.41 a7.5 7.5 0 1 0 15 0 a7.5 7.5 0 1 0 -15 0zM449.26 414.91 a7.5 7.5 0 1 0 15 0 a7.5 7.5 0 1 0 -15 0zM384.3 377.41 a7.5 7.5 0 1 0 15 0 a7.5 7.5 0 1 0 -15 0zM384.3 302.41 a7.5 7.5 0 1 0 15 0 a7.5 7.5 0 1 0 -15 0zM449.26 489.91 a7.5 7.5 0 1 0 15 0 a7.5 7.5 0 1 0 -15 0zM384.3 527.41 a7.5 7.5 0 1 0 15 0 a7.5 7.5 0 1 0 -15 0zM319.35 489.91 a7.5 7.5 0 1 0 15 0 a7.5 7.5 0 1 0 -15 0zM319.35 414.91 a7.5 7.5 0 1 0 15 0 a7.5 7.5 0 1 0 -15 0zM514.21 -72.59 a7.5 7.5 0 1 0 15 0 a7.5 7.5 0 1 0 -15 0zM579.16 -35.09 a7.5 7.5 0 1 0 15 0 a7.5 7.5 0 1 0 -15 0zM579.16 39.91 a7.5 7.5 0 1 0 15 0 a7.5 7.5 0 1 0 -15 0zM514.21 77.41 a7.5 7.5 0 1 0 15 0 a7.5 7.5 0 1 0 -15 0zM644.12 77.41 a7.5 7.5 0 1 0 15 0 a7.5 7.5 0 1 0 -15 0zM644.12 152.41 a7.5 7.5 0 1 0 15 0 a7.5 7.5 0 1 0 -15 0zM579.16 189.91 a7.5 7.5 0 1 0 15 0 a7.5 7.5 0 1 0 -15 0zM514.21 152.41 a7.5 7.5 0 1 0 15 0 a7.5 7.5 0 1 0 -15 0zM579.16 264.91 a7.5 7.5 0 1 0 15 0 a7.5 7.5 0 1 0 -15 0zM449.26 189.91 a7.5 7.5 0 1 0 15 0 a7.5 7.5 0 1 0 -15 0zM644.12 302.41 a7.5 7.5 0 1 0 15 0 a7.5 7.5 0 1 0 -15 0zM644.12 377.41 a7.5 7.5 0 1 0 15 0 a7.5 7.5 0 1 0 -15 0zM579.16 414.91 a7.5 7.5 0 1 0 15 0 a7.5 7.5 0 1 0 -15 0zM579.16 489.91 a7.5 7.5 0 1 0 15 0 a7.5 7.5 0 1 0 -15 0zM514.21 527.41 a7.5 7.5 0 1 0 15 0 a7.5 7.5 0 1 0 -15 0zM644.12 527.41 a7.5 7.5 0 1 0 15 0 a7.5 7.5 0 1 0 -15 0zM644.12 602.41 a7.5 7.5 0 1 0 15 0 a7.5 7.5 0 1 0 -15 0zM579.16 639.91 a7.5 7.5 0 1 0 15 0 a7.5 7.5 0 1 0 -15 0zM514.21 602.41 a7.5 7.5 0 1 0 15 0 a7.5 7.5 0 1 0 -15 0zM709.07 264.91 a7.5 7.5 0 1 0 15 0 a7.5 7.5 0 1 0 -15 0zM774.03 302.41 a7.5 7.5 0 1 0 15 0 a7.5 7.5 0 1 0 -15 0zM774.03 377.41 a7.5 7.5 0 1 0 15 0 a7.5 7.5 0 1 0 -15 0zM709.07 414.91 a7.5 7.5 0 1 0 15 0 a7.5 7.5 0 1 0 -15 0zM709.07 489.91 a7.5 7.5 0 1 0 15 0 a7.5 7.5 0 1 0 -15 0zM774.03 527.41 a7.5 7.5 0 1 0 15 0 a7.5 7.5 0 1 0 -15 0zM774.03 602.41 a7.5 7.5 0 1 0 15 0 a7.5 7.5 0 1 0 -15 0zM709.07 639.91 a7.5 7.5 0 1 0 15 0 a7.5 7.5 0 1 0 -15 0zM774.02 152.41 a7.5 7.5 0 1 0 15 0 a7.5 7.5 0 1 0 -15 0zM838.98 189.91 a7.5 7.5 0 1 0 15 0 a7.5 7.5 0 1 0 -15 0zM838.98 264.91 a7.5 7.5 0 1 0 15 0 a7.5 7.5 0 1 0 -15 0zM774.02 302.41 a7.5 7.5 0 1 0 15 0 a7.5 7.5 0 1 0 -15 0zM709.07 189.91 a7.5 7.5 0 1 0 15 0 a7.5 7.5 0 1 0 -15 0zM838.98 489.91 a7.5 7.5 0 1 0 15 0 a7.5 7.5 0 1 0 -15 0zM903.93 527.41 a7.5 7.5 0 1 0 15 0 a7.5 7.5 0 1 0 -15 0zM903.93 602.41 a7.5 7.5 0 1 0 15 0 a7.5 7.5 0 1 0 -15 0zM838.98 639.91 a7.5 7.5 0 1 0 15 0 a7.5 7.5 0 1 0 -15 0zM774.02 602.41 a7.5 7.5 0 1 0 15 0 a7.5 7.5 0 1 0 -15 0zM774.02 527.41 a7.5 7.5 0 1 0 15 0 a7.5 7.5 0 1 0 -15 0zM903.93 152.41 a7.5 7.5 0 1 0 15 0 a7.5 7.5 0 1 0 -15 0zM968.89 189.91 a7.5 7.5 0 1 0 15 0 a7.5 7.5 0 1 0 -15 0zM968.89 264.91 a7.5 7.5 0 1 0 15 0 a7.5 7.5 0 1 0 -15 0zM903.93 302.41 a7.5 7.5 0 1 0 15 0 a7.5 7.5 0 1 0 -15 0zM1033.84 302.41 a7.5 7.5 0 1 0 15 0 a7.5 7.5 0 1 0 -15 0zM1033.84 377.41 a7.5 7.5 0 1 0 15 0 a7.5 7.5 0 1 0 -15 0zM968.89 414.91 a7.5 7.5 0 1 0 15 0 a7.5 7.5 0 1 0 -15 0zM903.93 377.41 a7.5 7.5 0 1 0 15 0 a7.5 7.5 0 1 0 -15 0zM968.89 489.91 a7.5 7.5 0 1 0 15 0 a7.5 7.5 0 1 0 -15 0zM838.98 414.91 a7.5 7.5 0 1 0 15 0 a7.5 7.5 0 1 0 -15 0zM1033.84 527.41 a7.5 7.5 0 1 0 15 0 a7.5 7.5 0 1 0 -15 0zM1033.84 602.41 a7.5 7.5 0 1 0 15 0 a7.5 7.5 0 1 0 -15 0zM968.89 639.91 a7.5 7.5 0 1 0 15 0 a7.5 7.5 0 1 0 -15 0zM1098.79 39.91 a7.5 7.5 0 1 0 15 0 a7.5 7.5 0 1 0 -15 0zM1163.75 77.41 a7.5 7.5 0 1 0 15 0 a7.5 7.5 0 1 0 -15 0zM1163.75 152.41 a7.5 7.5 0 1 0 15 0 a7.5 7.5 0 1 0 -15 0zM1098.79 189.91 a7.5 7.5 0 1 0 15 0 a7.5 7.5 0 1 0 -15 0zM1033.84 152.41 a7.5 7.5 0 1 0 15 0 a7.5 7.5 0 1 0 -15 0zM1033.84 77.41 a7.5 7.5 0 1 0 15 0 a7.5 7.5 0 1 0 -15 0zM1098.79 489.91 a7.5 7.5 0 1 0 15 0 a7.5 7.5 0 1 0 -15 0zM1163.75 527.41 a7.5 7.5 0 1 0 15 0 a7.5 7.5 0 1 0 -15 0zM1163.75 602.41 a7.5 7.5 0 1 0 15 0 a7.5 7.5 0 1 0 -15 0zM1098.79 639.91 a7.5 7.5 0 1 0 15 0 a7.5 7.5 0 1 0 -15 0zM1293.65 -72.59 a7.5 7.5 0 1 0 15 0 a7.5 7.5 0 1 0 -15 0zM1358.61 -35.09 a7.5 7.5 0 1 0 15 0 a7.5 7.5 0 1 0 -15 0zM1358.61 39.91 a7.5 7.5 0 1 0 15 0 a7.5 7.5 0 1 0 -15 0zM1293.65 77.41 a7.5 7.5 0 1 0 15 0 a7.5 7.5 0 1 0 -15 0zM1228.7 39.91 a7.5 7.5 0 1 0 15 0 a7.5 7.5 0 1 0 -15 0zM1228.7 -35.09 a7.5 7.5 0 1 0 15 0 a7.5 7.5 0 1 0 -15 0zM1423.56 77.41 a7.5 7.5 0 1 0 15 0 a7.5 7.5 0 1 0 -15 0zM1423.56 152.41 a7.5 7.5 0 1 0 15 0 a7.5 7.5 0 1 0 -15 0zM1358.61 189.91 a7.5 7.5 0 1 0 15 0 a7.5 7.5 0 1 0 -15 0zM1293.65 152.41 a7.5 7.5 0 1 0 15 0 a7.5 7.5 0 1 0 -15 0zM1488.52 189.91 a7.5 7.5 0 1 0 15 0 a7.5 7.5 0 1 0 -15 0zM1488.52 264.91 a7.5 7.5 0 1 0 15 0 a7.5 7.5 0 1 0 -15 0zM1423.56 302.41 a7.5 7.5 0 1 0 15 0 a7.5 7.5 0 1 0 -15 0zM1358.61 264.91 a7.5 7.5 0 1 0 15 0 a7.5 7.5 0 1 0 -15 0zM1553.47 302.41 a7.5 7.5 0 1 0 15 0 a7.5 7.5 0 1 0 -15 0zM1553.47 377.41 a7.5 7.5 0 1 0 15 0 a7.5 7.5 0 1 0 -15 0zM1488.52 414.91 a7.5 7.5 0 1 0 15 0 a7.5 7.5 0 1 0 -15 0zM1423.56 377.41 a7.5 7.5 0 1 0 15 0 a7.5 7.5 0 1 0 -15 0zM1488.52 489.91 a7.5 7.5 0 1 0 15 0 a7.5 7.5 0 1 0 -15 0zM1553.47 527.41 a7.5 7.5 0 1 0 15 0 a7.5 7.5 0 1 0 -15 0zM1553.47 602.41 a7.5 7.5 0 1 0 15 0 a7.5 7.5 0 1 0 -15 0zM1488.52 639.91 a7.5 7.5 0 1 0 15 0 a7.5 7.5 0 1 0 -15 0zM1423.56 602.41 a7.5 7.5 0 1 0 15 0 a7.5 7.5 0 1 0 -15 0zM1423.56 527.41 a7.5 7.5 0 1 0 15 0 a7.5 7.5 0 1 0 -15 0z" fill="#03305d"></path><path d="M45.55 431.67L88.85 456.67L88.85 506.67L45.55 531.67L2.25 506.67L2.25 456.67zM88.85 506.67L132.16 531.67L132.16 581.67L88.85 606.67L45.55 581.67L45.55 531.67zM175.46 356.67L218.76 381.67L218.76 431.67L175.46 456.67L132.16 431.67L132.16 381.67zM218.76 -18.33L262.06 6.67L262.06 56.67L218.76 81.67L175.46 56.67L175.46 6.67zM262.06 56.67L305.37 81.67L305.37 131.67L262.06 156.67L218.76 131.67L218.76 81.67zM262.06 506.67L305.37 531.67L305.37 581.67L262.06 606.67L218.76 581.67L218.76 531.67zM348.67 56.67L391.97 81.67L391.97 131.67L348.67 156.67L305.37 131.67L305.37 81.67zM348.67 506.67L391.97 531.67L391.97 581.67L348.67 606.67L305.37 581.67L305.37 531.67zM521.88 206.67L565.18 231.67L565.18 281.67L521.88 306.67L478.58 281.67L478.58 231.67zM565.18 281.67L608.48 306.67L608.48 356.67L565.18 381.67L521.88 356.67L521.88 306.67zM608.48 506.67L651.78 531.67L651.78 581.67L608.48 606.67L565.18 581.67L565.18 531.67zM651.78 131.67L695.09 156.67L695.09 206.67L651.78 231.67L608.48 206.67L608.48 156.67zM738.39 281.67L781.69 306.67L781.69 356.67L738.39 381.67L695.09 356.67L695.09 306.67zM738.39 431.67L781.69 456.67L781.69 506.67L738.39 531.67L695.09 506.67L695.09 456.67zM954.9 56.67L998.21 81.67L998.21 131.67L954.9 156.67L911.6 131.67L911.6 81.67zM954.9 206.67L998.21 231.67L998.21 281.67L954.9 306.67L911.6 281.67L911.6 231.67zM1041.51 56.67L1084.81 81.67L1084.81 131.67L1041.51 156.67L998.21 131.67L998.21 81.67zM1128.11 206.67L1171.41 231.67L1171.41 281.67L1128.11 306.67L1084.81 281.67L1084.81 231.67zM1214.72 356.67L1258.02 381.67L1258.02 431.67L1214.72 456.67L1171.41 431.67L1171.41 381.67zM1301.32 56.67L1344.63 81.67L1344.63 131.67L1301.32 156.67L1258.02 131.67L1258.02 81.67zM1387.93 356.67L1431.23 381.67L1431.23 431.67L1387.93 456.67L1344.63 431.67L1344.63 381.67z" stroke="rgba(6, 80, 156, 0.93)" stroke-width="2"></path></g><defs><mask id="SvgjsMask1961"><rect width="1440" height="560" fill="#ffffff"></rect></mask></defs></svg>