<svg class="border shadow-md dark:border-slate-700" viewBox="0 0 431.2 431.2" xmlns="http://www.w3.org/2000/svg" preserveAspectRatio="none" style="width: 431.2px; height: 431.2px;"><rect class="bg" id="bg" x="0" y="0" width="431.2" height="431.2" fill="#ffffff"/><line opacity="0.8" x1="0" y1="41" x2="36" y2="77" stroke-linecap="round" stroke="#7678ED" stroke-width="16"/><line opacity="0.8" x1="0" y1="148.86666666666667" x2="38" y2="186.86666666666667" stroke-linecap="round" stroke="#F7B801" stroke-width="17"/><line opacity="0.8" x1="0" y1="262.8666666666667" x2="50" y2="312.8666666666667" stroke-linecap="round" stroke="#F7B801" stroke-width="16"/><line opacity="0.8" x1="0" y1="384.73333333333335" x2="41" y2="425.73333333333335" stroke-linecap="round" stroke="#7678ED" stroke-width="18"/><line opacity="0.8" x1="17.248" y1="36" x2="65.15911111111112" y2="83.91111111111111" stroke-linecap="round" stroke="#F7B801" stroke-width="16"/><line opacity="0.8" x1="17.248" y1="179.73333333333335" x2="65.15911111111112" y2="227.64444444444445" stroke-linecap="round" stroke="#7678ED" stroke-width="28"/><line opacity="0.8" x1="17.248" y1="323.4666666666667" x2="67.748" y2="373.9666666666667" stroke-linecap="round" stroke="#F7B801" stroke-width="16"/><line opacity="0.8" x1="34.496" y1="77" x2="74.49600000000001" y2="117" stroke-linecap="round" stroke="#F18701" stroke-width="16"/><line opacity="0.8" x1="34.496" y1="164.9111111111111" x2="66.49600000000001" y2="196.9111111111111" stroke-linecap="round" stroke="#F35B04" stroke-width="16"/><line opacity="0.8" x1="34.496" y1="244.8222222222222" x2="67.49600000000001" y2="277.8222222222222" stroke-linecap="round" stroke="#3D348B" stroke-width="39"/><line opacity="0.8" x1="34.496" y1="325.7333333333333" x2="66.49600000000001" y2="357.7333333333333" stroke-linecap="round" stroke="#F7B801" stroke-width="16"/><line opacity="0.8" x1="34.496" y1="405.6444444444444" x2="58.45155555555556" y2="429.59999999999997" stroke-linecap="round" stroke="#7678ED" stroke-width="33"/><line opacity="0.8" x1="34.496" y1="477.51111111111106" x2="58.45155555555556" y2="501.46666666666664" stroke-linecap="round" stroke="#F18701" stroke-width="16"/><line opacity="0.8" x1="51.744" y1="39" x2="75.69955555555555" y2="62.955555555555556" stroke-linecap="round" stroke="#7678ED" stroke-width="38"/><line opacity="0.8" x1="51.744" y1="110.86666666666667" x2="80.744" y2="139.86666666666667" stroke-linecap="round" stroke="#7678ED" stroke-width="16"/><line opacity="0.8" x1="51.744" y1="197.86666666666667" x2="75.69955555555555" y2="221.82222222222222" stroke-linecap="round" stroke="#F35B04" stroke-width="18"/><line opacity="0.8" x1="51.744" y1="269.73333333333335" x2="81.244" y2="299.23333333333335" stroke-linecap="round" stroke="#3D348B" stroke-width="16"/><line opacity="0.8" x1="51.744" y1="358.23333333333335" x2="105.744" y2="412.23333333333335" stroke-linecap="round" stroke="#F18701" stroke-width="39"/><line opacity="0.8" x1="51.744" y1="476.23333333333335" x2="75.69955555555555" y2="500.1888888888889" stroke-linecap="round" stroke="#7678ED" stroke-width="30"/><line opacity="0.8" x1="68.992" y1="117" x2="116.90311111111112" y2="164.9111111111111" stroke-linecap="round" stroke="#F18701" stroke-width="24"/><line opacity="0.8" x1="68.992" y1="260.73333333333335" x2="155.99200000000002" y2="347.73333333333335" stroke-linecap="round" stroke="#F35B04" stroke-width="16"/><line opacity="0.8" x1="68.992" y1="479.73333333333335" x2="130.49200000000002" y2="541.2333333333333" stroke-linecap="round" stroke="#F35B04" stroke-width="21"/><line opacity="0.8" x1="86.24000000000001" y1="94" x2="106.77333333333334" y2="114.53333333333333" stroke-linecap="round" stroke="#F18701" stroke-width="16"/><line opacity="0.8" x1="86.24000000000001" y1="155.6" x2="112.24000000000001" y2="181.6" stroke-linecap="round" stroke="#3D348B" stroke-width="18"/><line opacity="0.8" x1="86.24000000000001" y1="233.6" x2="112.24000000000001" y2="259.6" stroke-linecap="round" stroke="#3D348B" stroke-width="16"/><line opacity="0.8" x1="86.24000000000001" y1="311.6" x2="110.24000000000001" y2="335.6" stroke-linecap="round" stroke="#7678ED" stroke-width="31"/><line opacity="0.8" x1="86.24000000000001" y1="376.6666666666667" x2="111.74000000000001" y2="402.1666666666667" stroke-linecap="round" stroke="#3D348B" stroke-width="37"/><line opacity="0.8" x1="86.24000000000001" y1="453.1666666666667" x2="106.77333333333334" y2="473.70000000000005" stroke-linecap="round" stroke="#F7B801" stroke-width="16"/><line opacity="0.8" x1="86.24000000000001" y1="514.7666666666667" x2="120.24000000000001" y2="548.7666666666667" stroke-linecap="round" stroke="#F18701" stroke-width="16"/><line opacity="0.8" x1="103.488" y1="17" x2="132.488" y2="46" stroke-linecap="round" stroke="#F7B801" stroke-width="31"/><line opacity="0.8" x1="103.488" y1="87.06666666666666" x2="133.488" y2="117.06666666666666" stroke-linecap="round" stroke="#7678ED" stroke-width="18"/><line opacity="0.8" x1="103.488" y1="177.06666666666666" x2="134.488" y2="208.06666666666666" stroke-linecap="round" stroke="#7678ED" stroke-width="16"/><line opacity="0.8" x1="103.488" y1="249.13333333333333" x2="125.488" y2="271.1333333333333" stroke-linecap="round" stroke="#F18701" stroke-width="16"/><line opacity="0.8" x1="103.488" y1="315.1333333333333" x2="124.02133333333333" y2="335.66666666666663" stroke-linecap="round" stroke="#3D348B" stroke-width="36"/><line opacity="0.8" x1="103.488" y1="376.73333333333335" x2="127.488" y2="400.73333333333335" stroke-linecap="round" stroke="#F35B04" stroke-width="30"/><line opacity="0.8" x1="103.488" y1="441.8" x2="141.488" y2="479.8" stroke-linecap="round" stroke="#F35B04" stroke-width="16"/><line opacity="0.8" x1="120.736" y1="-16" x2="179.736" y2="43" stroke-linecap="round" stroke="#3D348B" stroke-width="25"/><line opacity="0.8" x1="120.736" y1="138.82222222222222" x2="182.736" y2="200.82222222222222" stroke-linecap="round" stroke="#F7B801" stroke-width="16"/><line opacity="0.8" x1="120.736" y1="296.64444444444445" x2="168.64711111111112" y2="344.55555555555554" stroke-linecap="round" stroke="#F35B04" stroke-width="16"/><line opacity="0.8" x1="137.984" y1="119" x2="186.984" y2="168" stroke-linecap="round" stroke="#F35B04" stroke-width="19"/><line opacity="0.8" x1="137.984" y1="263.8222222222222" x2="250.984" y2="376.8222222222222" stroke-linecap="round" stroke="#F7B801" stroke-width="16"/><line opacity="0.8" x1="137.984" y1="490.8222222222222" x2="185.89511111111113" y2="538.7333333333333" stroke-linecap="round" stroke="#3D348B" stroke-width="16"/><line opacity="0.8" x1="155.232" y1="105" x2="211.232" y2="161" stroke-linecap="round" stroke="#F18701" stroke-width="18"/><line opacity="0.8" x1="155.232" y1="218.49333333333334" x2="223.232" y2="286.49333333333334" stroke-linecap="round" stroke="#F7B801" stroke-width="24"/><line opacity="0.8" x1="155.232" y1="368.49333333333334" x2="183.97866666666667" y2="397.24" stroke-linecap="round" stroke="#3D348B" stroke-width="21"/><line opacity="0.8" x1="155.232" y1="454.73333333333335" x2="191.732" y2="491.23333333333335" stroke-linecap="round" stroke="#F18701" stroke-width="16"/><line opacity="0.8" x1="155.232" y1="564.2333333333333" x2="195.232" y2="604.2333333333333" stroke-linecap="round" stroke="#3D348B" stroke-width="16"/><line opacity="0.8" x1="172.48000000000002" y1="39" x2="196.43555555555557" y2="62.955555555555556" stroke-linecap="round" stroke="#3D348B" stroke-width="20"/><line opacity="0.8" x1="172.48000000000002" y1="110.86666666666667" x2="215.48000000000002" y2="153.86666666666667" stroke-linecap="round" stroke="#3D348B" stroke-width="16"/><line opacity="0.8" x1="172.48000000000002" y1="201.77777777777777" x2="196.43555555555557" y2="225.73333333333332" stroke-linecap="round" stroke="#7678ED" stroke-width="16"/><line opacity="0.8" x1="172.48000000000002" y1="273.64444444444445" x2="205.48000000000002" y2="306.64444444444445" stroke-linecap="round" stroke="#7678ED" stroke-width="16"/><line opacity="0.8" x1="172.48000000000002" y1="354.55555555555554" x2="196.48000000000002" y2="378.55555555555554" stroke-linecap="round" stroke="#3D348B" stroke-width="16"/><line opacity="0.8" x1="172.48000000000002" y1="426.55555555555554" x2="196.43555555555557" y2="450.5111111111111" stroke-linecap="round" stroke="#F18701" stroke-width="16"/><line opacity="0.8" x1="189.728" y1="-96" x2="211.228" y2="-74.5" stroke-linecap="round" stroke="#7678ED" stroke-width="21"/><line opacity="0.8" x1="189.728" y1="-31.5" x2="210.26133333333334" y2="-10.966666666666669" stroke-linecap="round" stroke="#F35B04" stroke-width="31"/><line opacity="0.8" x1="189.728" y1="30.099999999999994" x2="210.26133333333334" y2="50.633333333333326" stroke-linecap="round" stroke="#F35B04" stroke-width="16"/><line opacity="0.8" x1="189.728" y1="91.69999999999999" x2="224.728" y2="126.69999999999999" stroke-linecap="round" stroke="#F7B801" stroke-width="16"/><line opacity="0.8" x1="189.728" y1="167.76666666666665" x2="215.728" y2="193.76666666666665" stroke-linecap="round" stroke="#F18701" stroke-width="22"/><line opacity="0.8" x1="189.728" y1="234.83333333333331" x2="221.728" y2="266.8333333333333" stroke-linecap="round" stroke="#F7B801" stroke-width="16"/><line opacity="0.8" x1="189.728" y1="307.9" x2="222.728" y2="340.9" stroke-linecap="round" stroke="#F18701" stroke-width="16"/><line opacity="0.8" x1="206.976" y1="41" x2="249.976" y2="84" stroke-linecap="round" stroke="#7678ED" stroke-width="16"/><line opacity="0.8" x1="206.976" y1="141.49333333333334" x2="268.976" y2="203.49333333333334" stroke-linecap="round" stroke="#3D348B" stroke-width="38"/><line opacity="0.8" x1="206.976" y1="285.49333333333334" x2="235.976" y2="314.49333333333334" stroke-linecap="round" stroke="#F18701" stroke-width="18"/><line opacity="0.8" x1="206.976" y1="371.9866666666667" x2="235.72266666666667" y2="400.73333333333335" stroke-linecap="round" stroke="#7678ED" stroke-width="22"/><line opacity="0.8" x1="206.976" y1="458.2266666666667" x2="235.72266666666667" y2="486.97333333333336" stroke-linecap="round" stroke="#7678ED" stroke-width="29"/><line opacity="0.8" x1="224.22400000000002" y1="89" x2="248.17955555555557" y2="112.95555555555555" stroke-linecap="round" stroke="#F7B801" stroke-width="39"/><line opacity="0.8" x1="224.22400000000002" y1="160.86666666666667" x2="248.22400000000002" y2="184.86666666666667" stroke-linecap="round" stroke="#F18701" stroke-width="16"/><line opacity="0.8" x1="224.22400000000002" y1="232.86666666666667" x2="256.22400000000005" y2="264.8666666666667" stroke-linecap="round" stroke="#F35B04" stroke-width="23"/><line opacity="0.8" x1="224.22400000000002" y1="312.77777777777777" x2="248.17955555555557" y2="336.73333333333335" stroke-linecap="round" stroke="#F18701" stroke-width="25"/><line opacity="0.8" x1="224.22400000000002" y1="384.64444444444445" x2="259.22400000000005" y2="419.64444444444445" stroke-linecap="round" stroke="#F7B801" stroke-width="28"/><line opacity="0.8" x1="224.22400000000002" y1="473.64444444444445" x2="264.22400000000005" y2="513.6444444444444" stroke-linecap="round" stroke="#F18701" stroke-width="17"/><line opacity="0.8" x1="241.472" y1="60" x2="282.972" y2="101.5" stroke-linecap="round" stroke="#3D348B" stroke-width="24"/><line opacity="0.8" x1="241.472" y1="184.5" x2="280.472" y2="223.5" stroke-linecap="round" stroke="#3D348B" stroke-width="20"/><line opacity="0.8" x1="241.472" y1="280.99333333333334" x2="271.472" y2="310.99333333333334" stroke-linecap="round" stroke="#7678ED" stroke-width="16"/><line opacity="0.8" x1="241.472" y1="368.4866666666667" x2="279.972" y2="406.9866666666667" stroke-linecap="round" stroke="#7678ED" stroke-width="26"/><line opacity="0.8" x1="241.472" y1="483.9866666666667" x2="270.21866666666665" y2="512.7333333333333" stroke-linecap="round" stroke="#3D348B" stroke-width="16"/><line opacity="0.8" x1="258.72" y1="-95" x2="329.72" y2="-24" stroke-linecap="round" stroke="#F7B801" stroke-width="24"/><line opacity="0.8" x1="258.72" y1="100" x2="350.72" y2="192" stroke-linecap="round" stroke="#F18701" stroke-width="21"/><line opacity="0.8" x1="258.72" y1="298" x2="306.6311111111111" y2="345.9111111111111" stroke-linecap="round" stroke="#7678ED" stroke-width="16"/><line opacity="0.8" x1="275.968" y1="80" x2="299.9235555555556" y2="103.95555555555555" stroke-linecap="round" stroke="#3D348B" stroke-width="34"/><line opacity="0.8" x1="275.968" y1="151.86666666666667" x2="320.968" y2="196.86666666666667" stroke-linecap="round" stroke="#F35B04" stroke-width="16"/><line opacity="0.8" x1="275.968" y1="244.77777777777777" x2="315.968" y2="284.77777777777777" stroke-linecap="round" stroke="#F35B04" stroke-width="16"/><line opacity="0.8" x1="275.968" y1="332.68888888888887" x2="299.9235555555556" y2="356.64444444444445" stroke-linecap="round" stroke="#F7B801" stroke-width="25"/><line opacity="0.8" x1="275.968" y1="404.55555555555554" x2="313.968" y2="442.55555555555554" stroke-linecap="round" stroke="#F35B04" stroke-width="34"/><line opacity="0.8" x1="275.968" y1="490.46666666666664" x2="299.968" y2="514.4666666666667" stroke-linecap="round" stroke="#7678ED" stroke-width="16"/><line opacity="0.8" x1="293.216" y1="72" x2="369.216" y2="148" stroke-linecap="round" stroke="#7678ED" stroke-width="35"/><line opacity="0.8" x1="293.216" y1="243.82222222222222" x2="390.216" y2="340.8222222222222" stroke-linecap="round" stroke="#F35B04" stroke-width="16"/><line opacity="0.8" x1="293.216" y1="475.8222222222222" x2="363.716" y2="546.3222222222222" stroke-linecap="round" stroke="#F35B04" stroke-width="16"/><line opacity="0.8" x1="310.464" y1="62" x2="334.4195555555556" y2="85.95555555555555" stroke-linecap="round" stroke="#F7B801" stroke-width="19"/><line opacity="0.8" x1="310.464" y1="133.86666666666667" x2="334.4195555555556" y2="157.82222222222222" stroke-linecap="round" stroke="#3D348B" stroke-width="16"/><line opacity="0.8" x1="310.464" y1="205.73333333333335" x2="338.464" y2="233.73333333333335" stroke-linecap="round" stroke="#F35B04" stroke-width="16"/><line opacity="0.8" x1="310.464" y1="289.73333333333335" x2="345.964" y2="325.23333333333335" stroke-linecap="round" stroke="#F35B04" stroke-width="33"/><line opacity="0.8" x1="310.464" y1="396.23333333333335" x2="345.464" y2="431.23333333333335" stroke-linecap="round" stroke="#F35B04" stroke-width="27"/><line opacity="0.8" x1="310.464" y1="501.23333333333335" x2="334.4195555555556" y2="525.1888888888889" stroke-linecap="round" stroke="#F18701" stroke-width="38"/><line opacity="0.8" x1="327.71200000000005" y1="-78" x2="420.71200000000005" y2="15" stroke-linecap="round" stroke="#7678ED" stroke-width="30"/><line opacity="0.8" x1="327.71200000000005" y1="110.82222222222222" x2="426.71200000000005" y2="209.82222222222222" stroke-linecap="round" stroke="#F7B801" stroke-width="16"/><line opacity="0.8" x1="327.71200000000005" y1="333.8222222222222" x2="406.71200000000005" y2="412.8222222222222" stroke-linecap="round" stroke="#F7B801" stroke-width="17"/><line opacity="0.8" x1="344.96000000000004" y1="123" x2="390.96000000000004" y2="169" stroke-linecap="round" stroke="#7678ED" stroke-width="33"/><line opacity="0.8" x1="344.96000000000004" y1="237" x2="373.7066666666667" y2="265.74666666666667" stroke-linecap="round" stroke="#F7B801" stroke-width="26"/><line opacity="0.8" x1="344.96000000000004" y1="323.24" x2="376.96000000000004" y2="355.24" stroke-linecap="round" stroke="#F35B04" stroke-width="35"/><line opacity="0.8" x1="344.96000000000004" y1="412.73333333333335" x2="383.96000000000004" y2="451.73333333333335" stroke-linecap="round" stroke="#F18701" stroke-width="30"/><line opacity="0.8" x1="344.96000000000004" y1="509.2266666666667" x2="398.96000000000004" y2="563.2266666666667" stroke-linecap="round" stroke="#F18701" stroke-width="16"/><line opacity="0.8" x1="362.208" y1="54" x2="382.7413333333334" y2="74.53333333333333" stroke-linecap="round" stroke="#7678ED" stroke-width="16"/><line opacity="0.8" x1="362.208" y1="115.6" x2="411.208" y2="164.6" stroke-linecap="round" stroke="#7678ED" stroke-width="31"/><line opacity="0.8" x1="362.208" y1="224.6" x2="398.208" y2="260.6" stroke-linecap="round" stroke="#F18701" stroke-width="16"/><line opacity="0.8" x1="362.208" y1="319.6" x2="398.208" y2="355.6" stroke-linecap="round" stroke="#7678ED" stroke-width="26"/><line opacity="0.8" x1="362.208" y1="399.6" x2="382.7413333333334" y2="420.1333333333333" stroke-linecap="round" stroke="#F18701" stroke-width="16"/><line opacity="0.8" x1="362.208" y1="461.20000000000005" x2="412.208" y2="511.20000000000005" stroke-linecap="round" stroke="#F18701" stroke-width="18"/><line opacity="0.8" x1="362.208" y1="564.2" x2="391.208" y2="593.2" stroke-linecap="round" stroke="#7678ED" stroke-width="16"/><line opacity="0.8" x1="379.456" y1="51" x2="409.456" y2="81" stroke-linecap="round" stroke="#F18701" stroke-width="16"/><line opacity="0.8" x1="379.456" y1="122.06666666666666" x2="403.456" y2="146.06666666666666" stroke-linecap="round" stroke="#F18701" stroke-width="16"/><line opacity="0.8" x1="379.456" y1="187.13333333333333" x2="402.456" y2="210.13333333333333" stroke-linecap="round" stroke="#F7B801" stroke-width="38"/><line opacity="0.8" x1="379.456" y1="251.2" x2="399.9893333333333" y2="271.73333333333335" stroke-linecap="round" stroke="#F7B801" stroke-width="18"/><line opacity="0.8" x1="379.456" y1="312.79999999999995" x2="424.456" y2="357.79999999999995" stroke-linecap="round" stroke="#3D348B" stroke-width="34"/><line opacity="0.8" x1="379.456" y1="409.79999999999995" x2="409.456" y2="439.79999999999995" stroke-linecap="round" stroke="#3D348B" stroke-width="16"/><line opacity="0.8" x1="379.456" y1="480.8666666666666" x2="402.956" y2="504.3666666666666" stroke-linecap="round" stroke="#7678ED" stroke-width="16"/><line opacity="0.8" x1="396.704" y1="-34" x2="425.704" y2="-5" stroke-linecap="round" stroke="#F7B801" stroke-width="16"/><line opacity="0.8" x1="396.704" y1="36.06666666666666" x2="417.23733333333337" y2="56.599999999999994" stroke-linecap="round" stroke="#F7B801" stroke-width="38"/><line opacity="0.8" x1="396.704" y1="97.66666666666666" x2="417.23733333333337" y2="118.19999999999999" stroke-linecap="round" stroke="#F18701" stroke-width="25"/><line opacity="0.8" x1="396.704" y1="159.26666666666665" x2="417.23733333333337" y2="179.79999999999998" stroke-linecap="round" stroke="#F18701" stroke-width="27"/><line opacity="0.8" x1="396.704" y1="220.86666666666665" x2="422.704" y2="246.86666666666665" stroke-linecap="round" stroke="#7678ED" stroke-width="16"/><line opacity="0.8" x1="396.704" y1="298.8666666666667" x2="425.704" y2="327.8666666666667" stroke-linecap="round" stroke="#F35B04" stroke-width="38"/><line opacity="0.8" x1="396.704" y1="368.93333333333334" x2="417.23733333333337" y2="389.4666666666667" stroke-linecap="round" stroke="#3D348B" stroke-width="16"/><line opacity="0.8" x1="413.952" y1="16" x2="470.452" y2="72.5" stroke-linecap="round" stroke="#F18701" stroke-width="22"/><line opacity="0.8" x1="413.952" y1="185.5" x2="461.8631111111111" y2="233.4111111111111" stroke-linecap="round" stroke="#F35B04" stroke-width="16"/><line opacity="0.8" x1="413.952" y1="329.23333333333335" x2="465.452" y2="380.73333333333335" stroke-linecap="round" stroke="#F18701" stroke-width="33"/></svg>