<svg xmlns="http://www.w3.org/2000/svg" version="1.1" xmlns:xlink="http://www.w3.org/1999/xlink" xmlns:svgjs="http://svgjs.dev/svgjs" width="1440" height="560" preserveAspectRatio="none" viewBox="0 0 1440 560"><g mask="url(&quot;#SvgjsMask1192&quot;)" fill="none"><rect width="1440" height="560" x="0" y="0" fill="url(&quot;#SvgjsLinearGradient1193&quot;)"></rect><path d="M1440 0L1055.9 0L1440 215.56z" fill="rgba(255, 255, 255, .1)"></path><path d="M1055.9 0L1440 215.56L1440 364.53L739.4300000000001 0z" fill="rgba(255, 255, 255, .075)"></path><path d="M739.43 0L1440 364.53L1440 420.76L544.05 0z" fill="rgba(255, 255, 255, .05)"></path><path d="M544.05 0L1440 420.76L1440 487.8L341.5799999999999 0z" fill="rgba(255, 255, 255, .025)"></path><path d="M0 560L62.42 560L0 345.87z" fill="rgba(0, 0, 0, .1)"></path><path d="M0 345.87L62.42 560L394.08000000000004 560L0 290.93z" fill="rgba(0, 0, 0, .075)"></path><path d="M0 290.93L394.08000000000004 560L749.47 560L0 204.42000000000002z" fill="rgba(0, 0, 0, .05)"></path><path d="M0 204.42000000000002L749.47 560L1228.9 560L0 114.55000000000001z" fill="rgba(0, 0, 0, .025)"></path></g><defs><mask id="SvgjsMask1192"><rect width="1440" height="560" fill="#ffffff"></rect></mask><linearGradient x1="15.28%" y1="-39.29%" x2="84.72%" y2="139.29%" gradientUnits="userSpaceOnUse" id="SvgjsLinearGradient1193"><stop stop-color="#0e2a47" offset="0"></stop><stop stop-color="rgba(40, 167, 69, 1)" offset="1"></stop></linearGradient></defs></svg>